<svg width="401" height="401" viewBox="0 0 401 401" fill="none" xmlns="http://www.w3.org/2000/svg">
<path d="M400.674 200.807C400.674 311.264 311.131 400.807 200.674 400.807C90.2171 400.807 0.674072 311.264 0.674072 200.807C0.674072 90.3495 90.2171 0.806632 200.674 0.806632C311.131 0.806632 400.674 90.3495 400.674 200.807Z" fill="#F25567"/>
<path d="M208.014 357.375V44.2384C291.764 48.0429 358.487 116.686 358.487 200.807C358.487 284.928 291.764 353.57 208.014 357.375ZM185.994 138.788L154.022 51.0317C164.272 47.8882 174.968 45.7504 185.994 44.7378V138.788ZM185.994 356.875C173.85 355.764 162.107 353.282 150.917 349.597L185.994 264.182V356.875ZM102.271 323.345L158.957 263.697L127.699 339.815C118.675 335.131 110.164 329.611 102.271 323.345ZM60.7167 273.296L146.135 239.119L83.1433 305.406C74.3937 295.715 66.841 284.935 60.7167 273.296ZM43.5362 215.385H136.398L50.685 249.681C47.071 238.732 44.638 227.248 43.5362 215.385ZM49.816 154.653L139.917 193.514H43.0298C43.651 180.047 45.9832 167.023 49.816 154.653ZM77.2143 103.17L141.974 167.902L58.8243 132.037C63.9 121.728 70.0808 112.058 77.2143 103.17ZM131.187 60.0472L166.093 155.849L94.7973 84.576C105.66 74.8151 117.897 66.531 131.187 60.0472ZM200.675 18.5563C99.3282 18.5563 17.1704 100.153 17.1704 200.807C17.1704 301.461 99.3282 383.057 200.675 383.057C302.02 383.057 384.178 301.461 384.178 200.807C384.178 100.153 302.02 18.5563 200.675 18.5563Z" fill="white"/>
</svg>
